<svg id="visual" viewBox="0 0 900 600" width="900" height="600" xmlns="http://www.w3.org/2000/svg" xmlns:xlink="http://www.w3.org/1999/xlink" version="1.1"><path d="M0 181L180 283L360 211L540 211L720 229L900 205L900 0L720 0L540 0L360 0L180 0L0 0Z" fill="#484848"></path><path d="M0 427L180 469L360 481L540 433L720 427L900 475L900 203L720 227L540 209L360 209L180 281L0 179Z" fill="#696969"></path><path d="M0 601L180 601L360 601L540 601L720 601L900 601L900 473L720 425L540 431L360 479L180 467L0 425Z" fill="#8c8c8c"></path></svg>